<svg xmlns="http://www.w3.org/2000/svg" width="32" height="32"><g fill="#fff"><path d="M16.616 11.999c-3.817 0-6.912 3.094-6.912 6.912 0 3.817 3.095 6.912 6.912 6.912 3.818 0 6.912-3.095 6.912-6.912 0-3.818-3.093-6.912-6.912-6.912zm4.482 2.835l-3.824 5.191s-.846.61-1.583-.316c-.887-1.114-.099-1.762-.099-1.762l4.873-3.569s.329-.354.633 0c.155.181 0 .456 0 .456z"/><path d="M26.208 11.449l1.5-1.565c.07-.076.043-.217-.063-.313l-2.616-2.403c-.105-.097-.247-.113-.317-.037L23.26 8.734c-1.434-.938-3.077-1.583-4.847-1.845V4.412h1.804c.298 0 .539-.187.539-.417V1.739c0-.23-.241-.417-.539-.417h-7.406c-.298 0-.539.187-.539.417v2.256c0 .23.241.417.539.417h1.753v2.521c-1.691.288-3.265.924-4.642 1.834L8.44 7.13c-.07-.076-.211-.06-.317.037L5.507 9.57c-.105.097-.133.238-.063.314l1.545 1.611c-1.583 2.053-2.527 4.623-2.527 7.416 0 6.713 5.441 12.154 12.154 12.154s12.155-5.441 12.155-12.154c0-2.813-.958-5.402-2.563-7.462zm-9.592 17.413c-5.496 0-9.951-4.455-9.951-9.951S11.12 8.96 16.616 8.96s9.951 4.455 9.951 9.951-4.455 9.951-9.951 9.951z"/></g></svg>