<svg xmlns="http://www.w3.org/2000/svg" width="32" height="32"><path fill-rule="evenodd" clip-rule="evenodd" fill="#FFF" d="M21.61 16.846c.009-.808-.275-.828-.291-1.322-.012-.249.018-.942 0-1.613-.025-.668-.094-1.312-.148-1.469-.11-.311-.234-.824-1.174-1.61-1.027-.863-3.008-1.598-4.107-1.616-1.101-.019-2.384.533-3.375 1.174-.989.642-1.227.917-1.612 1.468-.387.551-.532.935-.442 1.907.094.972.113.715.147 1.613.03.742-.31.972-.292 1.469.024.738.3.892.292 1.171-.006.188-.328.415-.292 1.028.036.623.165.788 1.319 1.467.75.441 1.633.604 1.614.882-.027.402-.128 1.063-.146 1.465-.02.403.164.439.585.588.423.146 1.413.459 2.495.44 1.082-.021 1.539-.239 2.054-.44.513-.203.587-.386.587-.732 0-.35-.293-1.063-.293-1.32 0-.259.879-.533 1.908-1.027 1.024-.497 1.012-.992 1.024-1.321.021-.623-.293-.771-.293-1.028.001-.504.434-.588.44-1.174zm-8.655 1.465c-.513.019-1.612.019-1.612-1.465 0-2.061 1.1-2.293 1.906-2.349.806-.057.918-.147 1.32.146.724.527.678 1.46.439 2.202-.174.539-.366.75-.732 1.024-.366.277-.806.424-1.321.442zm3.376 2.346l-.204-.748-.312.002-.219.746c-.845-.227-1.184-.567-1.175-1.024.011-.46.268-.936.733-1.322.469-.386.544-.444.88-.44.322.006.351.065.587.296.513.487.843.813.881 1.467.039.64-.705.996-1.171 1.023zm2.639-2.346c-.515-.018-.953-.164-1.32-.44-.366-.274-.582-.478-.733-1.024-.188-.692-.284-1.675.441-2.202.403-.294.512-.203 1.319-.146.806.056 1.906.288 1.906 2.349 0 1.481-1.101 1.481-1.613 1.463z"/><g fill="none" stroke="#FFF" stroke-width="2.5238" stroke-miterlimit="10"><path d="M29.166 12.008l-2.416 4.3-4.299-2.416"/><path d="M26.325 15.726c-.043-2.631-1.068-5.249-3.077-7.256-4.103-4.105-10.758-4.106-14.861-.001-1.119 1.12-1.933 2.432-2.442 3.827"/><g><path d="M2.703 20.812l2.416-4.3 4.299 2.415"/><path d="M5.544 17.094c.043 2.631 1.068 5.248 3.077 7.256 4.104 4.104 10.758 4.105 14.861.001 1.103-1.104 1.908-2.393 2.419-3.766"/></g></g></svg>