<svg xmlns="http://www.w3.org/2000/svg" width="33" height="32"><path fill="#fff" d="M32.998 12.653v.998c0 .071-.023.131-.071.178-.071.143-.19.273-.356.393-.143.119-.309.202-.498.25-.213.071-.416.095-.605.071-.236-.047-.475-.154-.713-.32-1.544-1.022-2.958-1.782-4.24-2.281-1.283-.475-2.482-.772-3.6-.891-1.021-.023-1.948.012-2.779.107-.783.119-1.508.226-2.173.321-.476.095-.938.143-1.39.143-.451.024-.903.036-1.354.036h-.214c-.262-.119-.522-.226-.784-.321-.19-.095-.404-.166-.642-.214-.238-.071-.416-.13-.535-.178-.119.19-.226.368-.321.535-.095.143-.237.261-.427.356.093.164.295.484.604.959.309.428.606.832.891 1.211-.024.048-.024.083 0 .107 0 .071.047.107.142.107l1.069.891c.261 0 .261.13 0 .392-.071.071-.119.107-.143.107-.023 0-.095-.036-.214-.107l-.535-.392c.214.642.369 1.294.464 1.959.071.666.166 1.414.285 2.246.356 1.733.998 3.313 1.924 4.738.927 1.426 2.186 2.649 3.777 3.67.236.19.392.356.463.5.022.166.035.309.035.428v.213c0 .189-.035.355-.106.499-.072.167-.167.284-.285.356 0 .118-.036.25-.106.391-.096.119-.297.179-.606.179-.19.214-.546.144-1.069-.213l-.178-.106c-1.924-1.213-3.457-2.613-4.597-4.205-1.116-1.617-1.912-3.386-2.387-5.311-.095-.76-.167-1.438-.214-2.031-.095-.594-.143-1.152-.143-1.675-.119-.38-.19-.76-.214-1.14-.023-.404-.059-.689-.107-.855l-.392-.428-.714-1.176c-.238-.237-.428-.463-.57-.677-.167-.213-.297-.392-.392-.534-.143-.143-.214-.237-.214-.285-.095-.048-.297-.13-.605-.25-.285-.143-.582-.273-.891-.392-.38-.143-.796-.297-1.248-.463L.178 5.775 0 5.526c0-.095.06-.142.178-.142v-.178c0-.119.119-.178.356-.178L6.77 7.415c.095.071.143.155.143.25.023.095.035.19.035.285 0 .356.06.534.178.534.238.072.416.06.535-.035.096-.049.167-.096.214-.143v-.179l.677-.891c.095-.166.107-.297.036-.391-.119-.048-.226-.071-.32-.071l-.214.071h-.356c-.143-.024-.215-.084-.215-.178L3.492 1.393V.965h.535l5.31 3.706h.213c.38.522.712.986.998 1.39.261.356.499.689.713.998.261.286.416.452.463.499.119.048.356.119.713.214.332.119.688.226 1.069.321.404.119.784.214 1.14.285.333.071.522.106.57.106.237 0 .95-.059 2.138-.178 1.141-.119 2.686-.178 4.633-.178 1.141 0 2.078.036 2.814.107.737.095 1.461.285 2.174.57.713.309 1.51.736 2.389 1.283.879.57 2.007 1.342 3.385 2.316.118.071.202.154.249.249zm-17.996.249l1.461.57c.119 0 .178.119.178.356-.095 0-.154.024-.178.072-.023.047-.083.023-.178-.072l-1.425-.356c-.119 0-.19-.036-.214-.107v-.214c0-.143.048-.214.143-.214.071-.022.142-.035.213-.035zm.214-.499c0-.095.023-.154.071-.178.024-.047.059-.071.107-.071l1.461.249c.095 0 .19.036.286.107.07.071.106.142.106.213 0 .095-.036.155-.106.178h-.286l-1.461-.178c-.119.001-.178-.105-.178-.32zm.748 2.352c-.142 0-.25.012-.32.036-.048.048-.071.036-.071-.036l-1.283-.749c-.119 0-.178-.119-.178-.356.095 0 .155-.024.178-.071.024-.047.095-.024.214.071l1.211.677c.143 0 .226.048.25.143-.001.095-.001.191-.001.285z"/></svg>