<svg xmlns="http://www.w3.org/2000/svg" width="32" height="32"><g fill="#FFF"><circle cx="10.51" cy="15.297" r="5.348"/><path d="M27.609 2.439s-.298.289-.69 1.137c-.392.849-2.003 1.238-2.861 1.287-.858.05-1.694.294-2.351.673-.492.287-1.15.877-1.446 1.153l-.313-.517-.686.417 9.862 15.782.685-.416-6.39-10.059c.159-.14.425-.378.852-.774.844-.786 1.929-.887 2.947-.983 1.021-.096 1.942-.525 2.618-1.017.674-.491 1.237-1.454 1.237-1.454l-3.464-5.229z"/><path d="M28.835 17.144c-.977-.531-2.198-.168-2.728.809l-3 5.821-5.045.644c-2.585-1.625-5.292-2.046-7.482-2.046-5.008 0-9.102 2.086-9.477 4.732h-.037v3.549h19.025v-2.11l3.781-.702c.502.021.965-.154 1.329-.445.413-.17.774-.469 1.004-.892l3.438-6.631c.532-.977.17-2.199-.808-2.729z"/></g></svg>